<svg id="visual" viewBox="0 0 900 600" width="900" height="600" xmlns="http://www.w3.org/2000/svg" xmlns:xlink="http://www.w3.org/1999/xlink" version="1.1"><g fill="#ffffff"><circle r="38" cx="49" cy="121"></circle><circle r="3" cx="692" cy="175"></circle><circle r="4" cx="661" cy="401"></circle><circle r="17" cx="393" cy="540"></circle><circle r="27" cx="226" cy="547"></circle><circle r="31" cx="696" cy="538"></circle><circle r="16" cx="321" cy="343"></circle><circle r="2" cx="591" cy="336"></circle><circle r="5" cx="135" cy="470"></circle><circle r="24" cx="582" cy="195"></circle><circle r="30" cx="569" cy="69"></circle><circle r="34" cx="574" cy="503"></circle><circle r="6" cx="529" cy="419"></circle><circle r="4" cx="768" cy="390"></circle><circle r="16" cx="229" cy="405"></circle><circle r="35" cx="764" cy="84"></circle><circle r="4" cx="451" cy="104"></circle><circle r="32" cx="103" cy="357"></circle><circle r="10" cx="841" cy="423"></circle><circle r="26" cx="48" cy="453"></circle><circle r="21" cx="243" cy="122"></circle><circle r="6" cx="761" cy="211"></circle><circle r="16" cx="450" cy="405"></circle><circle r="16" cx="663" cy="254"></circle><circle r="15" cx="323" cy="431"></circle><circle r="26" cx="385" cy="44"></circle><circle r="8" cx="467" cy="210"></circle><circle r="22" cx="58" cy="557"></circle><circle r="25" cx="216" cy="302"></circle><circle r="15" cx="311" cy="540"></circle><circle r="32" cx="482" cy="511"></circle><circle r="23" cx="655" cy="54"></circle><circle r="2" cx="856" cy="258"></circle><circle r="9" cx="735" cy="470"></circle><circle r="5" cx="333" cy="131"></circle><circle r="9" cx="47" cy="208"></circle><circle r="31" cx="165" cy="213"></circle><circle r="17" cx="396" cy="464"></circle><circle r="15" cx="256" cy="199"></circle><circle r="8" cx="831" cy="562"></circle><circle r="34" cx="203" cy="50"></circle><circle r="35" cx="57" cy="287"></circle><circle r="14" cx="860" cy="153"></circle><circle r="12" cx="835" cy="338"></circle><circle r="31" cx="844" cy="54"></circle><circle r="20" cx="328" cy="259"></circle><circle r="28" cx="520" cy="137"></circle><circle r="29" cx="118" cy="150"></circle><circle r="23" cx="626" cy="134"></circle><circle r="31" cx="702" cy="330"></circle><circle r="30" cx="426" cy="274"></circle><circle r="31" cx="73" cy="49"></circle><circle r="18" cx="141" cy="553"></circle><circle r="22" cx="397" cy="172"></circle><circle r="30" cx="517" cy="289"></circle><circle r="18" cx="284" cy="44"></circle><circle r="27" cx="771" cy="290"></circle></g></svg>